<svg width="130" height="48" viewBox="0 0 130 48" fill="none" xmlns="http://www.w3.org/2000/svg">
<rect opacity="0.01" width="130" height="48" fill="white"/>
<path d="M28.9843 43.1269C26.569 45.1185 23.857 46.7288 20.9755 47.8729C20.5094 48.0424 20.0009 48.0424 19.5771 47.8729C16.6956 46.6864 13.9837 45.0761 11.5683 43.1269L19.5347 39.8217C20.0009 39.6522 20.5094 39.6522 20.9755 39.8217L28.9843 43.1269ZM20.9755 26.6007C20.5094 26.4312 20.0009 26.4312 19.5347 26.6007L3.5171 33.2536C4.74597 35.6266 6.27146 37.8301 8.09357 39.8217L19.3229 35.1604C19.9161 34.9062 20.6365 34.9062 21.2297 35.1604L32.459 39.8217C34.2388 37.8301 35.8066 35.6266 37.0355 33.2536L20.9755 26.6007ZM39.3661 21.0073L20.9755 13.3798C20.5094 13.2103 20.0009 13.2103 19.5347 13.3798L1.14412 21.0073C0 21.5 0.169499 21.5 0.169499 21.9819C0.423747 24.4396 0.974619 26.8974 1.77974 29.228L19.3229 21.9395C19.9161 21.6853 20.6365 21.6853 21.2297 21.9395L38.7729 29.228C39.578 26.8974 40.1289 24.4396 40.3831 21.9819C40.1712 21.5158 39.8322 21.1768 39.3661 21.0073ZM40.2136 8.46436C40.1712 8.37961 40.1289 8.33723 40.0441 8.25248L39.9594 8.16773C39.7899 7.99823 39.578 7.87111 39.3661 7.78636L20.9755 0.158905C20.5094 -0.0529684 20.0009 -0.0529684 19.5347 0.158905L1.14412 7.78636C1.05937 7.82873 0.974619 7.87111 0.889869 7.91349C0.762745 7.99823 0.677996 8.08298 0.550871 8.16773C0.508497 8.21011 0.423747 8.29486 0.381373 8.37961C0.338998 8.46436 0.338998 8.42198 0.338998 8.46436C0.127124 8.76098 0 9.14235 0 9.52373V16.7698L19.3229 8.76098C19.9161 8.50673 20.6365 8.50673 21.2297 8.76098L40.5526 16.7698V9.52373C40.5526 9.14235 40.4255 8.76098 40.2136 8.46436Z" fill="url(#paint0_linear_112_2642)"/>
<path d="M77.2494 22.2354L76.19 30.8374C76.19 31.0917 75.9781 31.2612 75.7239 31.2188H72.9695C72.6729 31.2188 72.5458 31.0917 72.5881 30.8374L73.6475 22.2354C73.7323 21.8116 73.7746 21.3455 73.7746 20.8794C73.7746 20.498 73.6899 20.159 73.478 19.82C73.1814 19.481 72.6729 19.2691 71.9101 19.2691C70.766 19.3115 69.6219 19.4386 68.5202 19.7352L67.1642 30.7951C67.1642 31.0493 66.9523 31.2188 66.698 31.1764H63.9861C63.6894 31.1764 63.6047 31.0493 63.6047 30.7951L64.6641 22.2777C64.7488 21.8116 64.7912 21.3455 64.7912 20.8794C64.8336 20.498 64.7064 20.1166 64.5369 19.82C64.2827 19.481 63.7742 19.3115 63.0114 19.3115C61.8249 19.3539 60.6808 19.481 59.5367 19.7776L58.1807 30.8374C58.1807 31.0917 57.9688 31.2612 57.7146 31.2188H55.0026C54.7484 31.2188 54.5789 31.1341 54.6212 30.8374L56.0196 19.3115C56.1467 18.3369 56.6552 17.9555 58.2231 17.5318C60.0028 17.108 61.825 16.8538 63.6894 16.8538C65.3844 16.8538 66.4862 17.2351 67.1642 17.786C68.9439 17.1928 70.8508 16.8961 72.7153 16.8538C74.3255 16.8538 75.512 17.0233 76.3595 17.6165C77.207 18.2098 77.4612 18.9725 77.4612 20.3285C77.4189 20.9217 77.3341 21.5574 77.2494 22.2354Z" fill="#202027"/>
<path d="M92.0378 26.8118C91.275 29.6933 89.58 31.5578 85.7239 31.5578C84.4951 31.5578 83.2238 31.4307 82.0373 31.0917L82.1221 32.7443L81.7407 35.8376C81.7407 36.1343 81.5288 36.3461 81.2322 36.3885L78.605 36.8546C78.266 36.897 78.0965 36.7699 78.1388 36.4309L80.1728 19.8624C80.3 18.464 80.8508 18.0826 82.0797 17.7013C83.9018 17.1504 85.7663 16.8538 87.6308 16.8538C89.6224 16.8538 90.8513 17.2775 91.6564 18.125C92.4615 18.9725 92.7581 20.159 92.7581 21.6421C92.7581 23.3795 92.5039 25.1168 92.0378 26.8118ZM88.6478 20.0742C88.2664 19.4386 87.5884 19.3115 86.529 19.3115C85.5544 19.3539 84.6222 19.481 83.6899 19.7352L82.6306 28.7611C83.4357 28.9729 84.2832 29.0577 85.1307 29.1001C87.1223 29.1001 88.0545 28.4644 88.6478 25.922C88.9444 24.6931 89.1139 23.3795 89.1139 22.1082C89.0715 21.0912 88.9868 20.498 88.6478 20.0742Z" fill="#202027"/>
<path d="M107.42 22.1082L106.615 28.4221C106.403 30.4137 105.64 30.795 103.818 31.2188C102.589 31.473 101.318 31.6002 100.047 31.6002C98.5638 31.6002 96.9112 31.5154 95.7247 30.8374C94.7925 30.3289 94.1569 29.4391 94.1569 27.9136C94.1569 26.6423 94.4535 25.2863 95.2586 24.3541C96.1909 23.2947 97.5892 23.0828 98.9876 22.871L103.861 22.1082L103.945 21.2607C103.988 21.176 103.988 21.0489 103.988 20.9217V20.5827C104.03 20.159 103.776 19.7776 103.395 19.6505C102.759 19.4386 102.081 19.3539 101.403 19.3962C99.5385 19.3962 97.674 19.9471 96.6993 20.159C96.657 20.2014 96.6146 20.2014 96.5722 20.2014H96.4875C96.3603 20.2014 96.2756 20.1166 96.2332 19.9471L96.0637 18.2945C96.0213 17.9555 96.2756 17.8708 96.4027 17.786C98.352 17.1928 100.344 16.8961 102.378 16.8538C104.327 16.8538 105.513 17.108 106.318 17.6165C107.293 18.1674 107.59 19.0149 107.59 20.0742C107.59 20.7099 107.505 21.3879 107.42 22.1082ZM100.174 24.905C99.3266 25.0321 98.6062 25.1168 98.1825 25.8372C97.9282 26.3033 97.7587 26.8542 97.8011 27.4051C97.7587 27.9559 98.013 28.5068 98.4791 28.8034C99.03 29.2272 99.7927 29.2272 100.513 29.2272C101.361 29.2272 102.208 29.1001 103.013 28.8458L103.564 24.3965L100.174 24.905Z" fill="#202027"/>
<path d="M116.954 32.8719C115.895 35.3721 114.835 36.8128 111.488 36.8128C110.683 36.8552 109.835 36.7704 109.03 36.6433C108.776 36.5585 108.606 36.5162 108.691 36.2196L108.903 34.6941C108.945 34.4398 108.988 34.2279 109.411 34.2279C109.496 34.2279 110.386 34.3127 110.979 34.3127C112.378 34.3127 113.098 33.9313 113.607 32.7024L114.157 31.2617H112.42C112.166 31.2617 112.039 31.1346 111.954 30.838L109.623 17.8289C109.581 17.5747 109.75 17.3204 110.005 17.2357C110.047 17.2357 110.089 17.2357 110.132 17.2357H112.801C113.056 17.1933 113.268 17.4052 113.31 17.6594L114.793 28.9735H115.471L119.454 17.7018C119.539 17.4475 119.793 17.2357 120.09 17.2357H122.844C123.014 17.1933 123.226 17.3204 123.226 17.5323C123.226 17.5747 123.226 17.5747 123.226 17.617C123.226 17.7018 123.226 17.7442 123.183 17.8289L116.954 32.8719Z" fill="#202027"/>
<defs>
<linearGradient id="paint0_linear_112_2642" x1="0" y1="24" x2="40.5526" y2="24" gradientUnits="userSpaceOnUse">
<stop stop-color="#4193CF"/>
<stop offset="1" stop-color="#68E2FB"/>
</linearGradient>
</defs>
</svg>
